# xmcd
#
# Track frame offsets: 
#        150
#        13337
#        24851
#        37842
#        51801
#        78741
#        92422
#        102443
#        121793
#        133479
#
# Disc length: 2046 seconds
#
# Revision: 1
# Processed by: cddbd v1.5.1PL0 Copyright (c) Steve Scherf et al.
# Submitted via: ExactAudioCopy v0.95a5
#
DISCID=7907fc0a
DTITLE=Emmylou Harris - Gliding Bird
DYEAR=1975
DGENRE=Country
TTITLE0=Emmylou Harris - I'll Be Your Baby Tonight
TTITLE1=Emmylou Harris - Fugue For The Fox
TTITLE2=Emmylou Harris - I Saw The Light
TTITLE3=Emmylou Harris - Clocks
TTITLE4=Emmylou Harris - Black Gypsy
TTITLE5=Emmylou Harris - Gliding Bird
TTITLE6=Emmylou Harris - Everybody's Talkin'
TTITLE7=Emmylou Harris - Bobbie's Gone
TTITLE8=Emmylou Harris - I'll Never Fall In Love Again
TTITLE9=Emmylou Harris - Waltz Of The Magic Man
EXTD=(c)1975 Jubilee Records/(p)1969 Roulette Records Inc.\n(p) 1969 r
EXTD=eleased as Roulette PKL 5577 \nProduced and arranged by Ray Ellis
EXTD=for Shel-Ray-Productions Ltd\n
EXTT0=
EXTT1=
EXTT2=
EXTT3=
EXTT4=
EXTT5=
EXTT6=
EXTT7=
EXTT8=
EXTT9=
PLAYORDER=
